# xmcd
#
# Track frame offsets: 
#        199
#        13976
#        26465
#        45626
#        58844
#        73371
#
# Disc length: 1221 seconds
#
# Revision: 1
# Processed by: cddbd v1.4PL0 Copyright (c) Steve Scherf et al.
# Submitted via: ExactAudioCopy v0.95a3
#
DISCID=5404c306
DTITLE=Tequilajazzz - Абориген
DYEAR=1995
DGENRE=Alternative
TTITLE0=Кокаин
TTITLE1=Розенбом
TTITLE2=Абориген
TTITLE3=Небо молчит
TTITLE4=Солнце
TTITLE5=Бай-бай-бай
EXTD=
EXTT0=
EXTT1=
EXTT2=
EXTT3=
EXTT4=
EXTT5=
PLAYORDER=
